<svg width="148" height="31" viewBox="0 0 148 31" fill="none" xmlns="http://www.w3.org/2000/svg">
<g clip-path="url(#clip0_840_6674)">
<path d="M62.5326 2.23596H55.7131L46.5096 16.9768L36.8908 2.23596H30.0713L43.1019 21.9367L38.3254 29.4954H45.1449L62.5326 2.23596Z" fill="#0066FF"/>
<path d="M28.1964 23.2512H22.5649V7.39561H6.3856V23.2512H0.75V2.23596H28.1964V23.2512Z" fill="#0066FF"/>
<path d="M57.7275 23.4044V18.1319C62.6767 18.1319 63.1166 16.825 63.3262 16.1961C64.3867 13.0287 66.1626 4.45696 66.179 4.37034L66.6229 2.22363H87.6527V23.3291H81.8977V7.50002H71.3747C70.754 10.3585 69.636 15.3223 68.822 17.7439C67.1284 22.8207 61.4477 23.4044 57.7275 23.4044Z" fill="#0066FF"/>
<path d="M114.213 8.53571C113.054 7.95572 111.73 7.62807 110.321 7.62807H97.475V2.22363H91.8477V23.3179H110.321C111.73 23.3179 113.054 22.9864 114.213 22.4103C116.93 21.0958 118.78 18.4822 118.78 15.473C118.78 12.4638 116.93 9.85011 114.213 8.53571ZM110.218 18.162H97.475V12.7839H110.218C111.837 12.7839 113.153 13.9891 113.153 15.473C113.153 16.9569 111.841 18.162 110.218 18.162Z" fill="#0066FF"/>
<path d="M134.956 6.95852C139.605 6.57813 143.337 6.95852 147.588 9.28224V3.74975C144.258 2.22821 139.128 1.44862 134.956 1.68589C127.656 2.10017 120.047 6.1714 120.047 12.7848C120.047 19.3981 127.656 23.4694 134.956 23.8836C139.132 24.1209 144.258 23.3414 147.588 21.8197V16.2835C143.337 18.611 139.605 18.9876 134.956 18.6072C130.833 18.272 126.213 16.7016 126.213 12.781C126.213 8.86042 130.833 7.29371 134.956 6.95852Z" fill="#0066FF"/>
</g>
<defs>
<clipPath id="clip0_840_6674">
<rect width="146.842" height="30" fill="white" transform="translate(0.75 0.25)"/>
</clipPath>
</defs>
</svg>
