<svg width="93" height="20" viewBox="0 0 93 20" fill="none" xmlns="http://www.w3.org/2000/svg">
<g clip-path="url(#clip0_137_146622)">
<path d="M39.1311 1.75781H34.8121L28.9832 11.0937L22.8913 1.75781H18.5723L26.825 14.235L23.7999 19.0222H28.1189L39.1311 1.75781Z" fill="#0066FF"/>
<path d="M17.3827 15.0675H13.8161V5.02559H3.56921V15.0675H0V1.75781H17.3827V15.0675Z" fill="#0066FF"/>
<path d="M36.0879 15.1645V11.8252C39.2224 11.8252 39.501 10.9975 39.6337 10.5992C40.3054 8.59324 41.4301 3.16444 41.4405 3.10958L41.7216 1.75H55.0405V15.1168H51.3957V5.09171H44.7311C44.338 6.90211 43.6299 10.0459 43.1144 11.5795C42.0418 14.7948 38.444 15.1645 36.0879 15.1645Z" fill="#0066FF"/>
<path d="M71.8583 5.74765C71.1241 5.38032 70.2858 5.17281 69.3929 5.17281H61.2574V1.75H57.6934V15.1097H69.3929C70.2858 15.1097 71.1241 14.8998 71.8583 14.5349C73.5791 13.7024 74.7506 12.0471 74.7506 10.1413C74.7506 8.23545 73.5791 6.5801 71.8583 5.74765ZM69.3278 11.8443H61.2574V8.4382H69.3278C70.3535 8.4382 71.1866 9.20147 71.1866 10.1413C71.1866 11.0811 70.3561 11.8443 69.3278 11.8443Z" fill="#0066FF"/>
<path d="M84.999 4.74872C87.9434 4.50781 90.3073 4.74872 92.9992 6.22041V2.7165C90.8904 1.75286 87.6414 1.25912 84.999 1.40939C80.3754 1.67177 75.5566 4.25021 75.5566 8.43868C75.5566 12.6271 80.3754 15.2056 84.999 15.4679C87.644 15.6182 90.8904 15.1245 92.9992 14.1608V10.6545C90.3073 12.1286 87.9434 12.3671 84.999 12.1262C82.3878 11.9139 79.4617 10.9193 79.4617 8.43629C79.4617 5.95326 82.3878 4.96101 84.999 4.74872Z" fill="#0066FF"/>
</g>
<defs>
<clipPath id="clip0_137_146622">
<rect width="93" height="19" fill="white" transform="translate(0 0.5)"/>
</clipPath>
</defs>
</svg>
